<?xml version="1.0" encoding="utf-8"?>
<!-- Generator: Adobe Illustrator 19.0.0, SVG Export Plug-In . SVG Version: 6.00 Build 0)  -->
<svg version="1.1" id="Capa_1" xmlns="http://www.w3.org/2000/svg" xmlns:xlink="http://www.w3.org/1999/xlink" x="0px" y="0px"
	 viewBox="0 0 128.2 34.2" style="enable-background:new 0 0 128.2 34.2;" xml:space="preserve">
<style type="text/css">
	.st0{fill:#4C4E50;}
</style>
<path class="st0" d="M35.1,13.4c1.2,0,2.1,0.8,2.4,2.1h1.1c-0.3-1.9-1.7-3.1-3.4-3.1c-1,0-1.9,0.4-2.5,1.1c-0.9,1-0.9,2-0.9,4.2
	c0,2.2,0,3.2,0.9,4.2c0.7,0.7,1.6,1.1,2.5,1.1c1.8,0,3.1-1.1,3.4-3.1h-1.1c-0.3,1.3-1.1,2.1-2.4,2.1c-0.7,0-1.3-0.3-1.7-0.7
	c-0.6-0.7-0.7-1.4-0.7-3.5c0-2.2,0.1-2.9,0.7-3.5C33.8,13.6,34.4,13.4,35.1,13.4"/>
<polygon class="st0" points="41.9,12.5 40.8,12.5 40.8,22.8 47,22.8 47,21.8 41.9,21.8 "/>
<polygon class="st0" points="46.7,13.5 49.6,13.5 49.6,22.8 50.6,22.8 50.6,13.5 53.5,13.5 53.5,12.5 46.7,12.5 "/>
<path class="st0" d="M56.4,17.3v-3.8h2.6c1.2,0,2,0.6,2,1.9c0,1.3-0.8,1.9-2,1.9H56.4z M62.1,15.4c0-1.8-1.2-2.9-2.9-2.9h-3.8v10.3
	h1.1v-4.6h2.4l2.3,4.6h1.2l-2.4-4.7C61.2,17.8,62.1,16.9,62.1,15.4"/>
<path class="st0" d="M65.5,19.5l1.9-5.5l1.8,5.5H65.5z M66.9,12.5l-3.7,10.3h1.1l0.8-2.3h4.3l0.8,2.3h1.1l-3.6-10.3H66.9z"/>
<path class="st0" d="M77.5,14.2c1,0,1.5,0.6,1.7,1.5h2c-0.3-2.2-1.8-3.3-3.7-3.3c-1.1,0-2,0.4-2.7,1.1c-1,1-1,2.3-1,4.1
	c0,1.8,0,3.1,1,4.1c0.7,0.7,1.6,1.1,2.7,1.1c1.8,0,3.3-1.1,3.7-3.3h-2c-0.2,0.8-0.7,1.5-1.7,1.5c-0.5,0-1-0.2-1.2-0.5
	c-0.4-0.4-0.5-0.9-0.5-2.9c0-2,0.1-2.5,0.5-2.9C76.5,14.4,76.9,14.2,77.5,14.2"/>
<polygon class="st0" points="84.7,12.5 82.8,12.5 82.8,22.8 89.2,22.8 89.2,21 84.7,21 "/>
<path class="st0" d="M93.7,14.2c1,0,1.5,0.6,1.7,1.5h2c-0.3-2.2-1.8-3.3-3.6-3.3c-1.1,0-2,0.4-2.7,1.1c-1,1-1,2.3-1,4.1
	c0,1.8,0,3.1,1,4.1c0.7,0.7,1.6,1.1,2.7,1.1c1.8,0,3.3-1.1,3.6-3.3h-2c-0.2,0.8-0.7,1.5-1.7,1.5c-0.5,0-1-0.2-1.2-0.5
	c-0.4-0.4-0.5-0.9-0.5-2.9c0-2,0.1-2.5,0.5-2.9C92.8,14.4,93.2,14.2,93.7,14.2"/>
<polygon class="st0" points="98,14.3 100.6,14.3 100.6,22.8 102.6,22.8 102.6,14.3 105.2,14.3 105.2,12.5 98,12.5 "/>
<polygon class="st0" points="111.6,12.5 109.6,19.2 107.6,12.5 105.6,12.5 108.9,22.8 110.3,22.8 113.6,12.5 "/>
<path class="st0" d="M116.4,19.3l1.3-3.8l1.2,3.8H116.4z M118.4,12.5h-1.5l-3.6,10.3h2l0.6-1.8h3.5l0.6,1.8h2L118.4,12.5z"/>
<path class="st0" d="M16.4,29.3l-2-3.1l11,0L16.4,29.3z M6.3,19.1l1.9-1.7l1,7.8L6.3,19.1z M11.8,7.2L20.4,6L6.5,14.9L11.8,7.2z
	 M27.8,16.2l-9.2-8L21.1,6L27.8,16.2z M28.3,17.1l-14.1,8.7l-5.6-8.7l9.8-8.7L28.3,17.1z M27.6,10c0,0,0-0.1-0.1-0.1l-6.3-4.2
	c0,0,0,0,0,0c0,0,0,0,0,0c0,0,0,0,0,0c0,0,0,0,0,0c0,0,0,0,0,0l0,0l-9.4,1.2l-0.1,0.1l-5.8,8.5l0,0c0,0,0,0.1,0,0.1l0.2,3.6
	c0,0,0,0,0,0.1v0l3.4,7.1l0,0c0,0,0,0.1,0.1,0.1l6.8,3.3c0,0,0,0,0.1,0c0,0,0,0,0,0l0,0l10.1-3.5c0.1,0,0.1-0.1,0.1-0.1l2.1-8.9
	c0,0,0,0,0-0.1c0,0,0,0,0-0.1L27.6,10z"/>
</svg>
