<?xml version="1.0" standalone="no"?>
<!DOCTYPE svg PUBLIC "-//W3C//DTD SVG 1.1//EN" "http://www.w3.org/Graphics/SVG/1.1/DTD/svg11.dtd">
<svg xmlns="http://www.w3.org/2000/svg">
<metadata>Generated by Fontastic.me</metadata>
<defs>
<font id="ccsfont" horiz-adv-x="512">
<font-face font-family="ccsfont" units-per-em="512" ascent="480" descent="-32"/>
<missing-glyph horiz-adv-x="512" />

<glyph glyph-name="comment" unicode="&#97;" d="M457 427l-403 0c-18 0-33-15-33-33l0-274c0-19 15-34 33-34l63 0 0-53c0-4 2-8 6-10 2-1 3-1 5-1 3 0 5 1 7 2l99 62 223 0c18 0 33 15 33 34l0 274c0 18-15 33-33 33z m-89-234l-223 0c-4 0-8 2-11 5-3 3-5 7-5 11 0 9 7 17 16 17l223 0c9 0 16-8 16-17 0-9-7-16-16-16z m0 95l-223 0c-4 0-8 1-11 4-3 3-5 7-5 12 0 9 7 16 16 16l223 1c9 0 16-8 16-17 0-9-7-16-16-16z"/>
<glyph glyph-name="draft" unicode="&#98;" d="M256 491c-130 0-235-105-235-235 0-130 105-235 235-235 130 0 235 105 235 235 0 130-105 235-235 235m0-437c-111 0-202 91-202 202 0 112 91 203 202 203 112 0 203-91 203-203 0-111-91-202-203-202m149 181l-298 0c-12 0-21 9-21 21 0 12 9 21 21 21l298 0c12 0 22-9 22-21 0-12-10-21-22-21z"/>
<glyph glyph-name="fav" unicode="&#99;" d="M381 54c-1 0-3 0-5 1l-121 88-121-88c-3-2-7-2-10 0-3 3-4 7-3 10l46 142-121 88c-3 2-4 6-3 10 1 4 5 6 8 6l150 0 46 142c1 4 5 6 8 6 4 0 8-2 9-6l46-142 149 0c4 0 8-2 9-6 1-4 0-7-3-10l-121-88 46-142c1-3 0-7-3-10-2-1-4-1-6-1"/>
<glyph glyph-name="forward" unicode="&#100;" d="M150 53c-8 0-15 4-21 10-9 11-8 28 4 37l187 157-187 156c-12 9-13 26-4 37 10 12 27 13 38 4l212-177c6-5 9-12 9-20 0-8-3-15-9-20l-212-177c-5-5-11-7-17-7z"/>
<glyph glyph-name="label" unicode="&#101;" d="M424 459c-17 0-184 0-184 0l-219-218 219-219 218 219c0 0 0 167 0 184 0 22-13 34-34 34z m-281-251c-4 0-9 2-12 6-7 6-7 18 0 25l111 111c7 7 18 7 25 0 7-7 7-18 0-25l-111-111c-3-4-8-6-13-6z m206 35l-111-111c-4-4-8-5-13-5-5 0-9 1-13 5-6 7-6 18 0 25l112 111c7 7 18 7 25 0 7-7 7-18 0-25z m70 128c-7-6-15-10-25-10-9 0-18 4-25 10-13 14-13 36 0 50 14 13 37 13 50 0 14-14 14-36 0-50z"/>
<glyph glyph-name="more" unicode="&#102;" d="M491 307l-184 0 0 184-101 0 0-184-186 0 0-101 186 0 0-184 101 0 0 184 184 0z"/>
<glyph glyph-name="programmed" unicode="&#103;" d="M406 256c0-12-9-21-21-21-12 0-22 9-22 21 0 12 10 22 22 22 12 0 21-10 21-22z m-85 0c0-12-10-21-22-21-12 0-21 9-21 21 0 12 9 22 21 22 12 0 22-10 22-22z m-86 0c0-12-9-21-21-21-12 0-22 9-22 21 0 12 10 22 22 22 12 0 21-10 21-22z m-85 0c0-12-10-21-22-21-11 0-21 9-21 21 0 12 10 22 21 22 12 0 22-10 22-22z m106 235c-130 0-235-105-235-235 0-130 105-235 235-235 130 0 235 105 235 235 0 130-105 235-235 235m0-437c-111 0-202 91-202 202 0 112 91 203 202 203 112 0 203-91 203-203 0-111-91-202-203-202"/>
<glyph glyph-name="published" unicode="&#104;" d="M348 348l-144-144-55 67c-7 9-21 11-30 3-9-7-10-21-3-30l70-86c7-9 21-10 30-3 1 1 1 2 2 2l160 161c9 8 9 22 0 30-8 8-22 8-30 0z m-92 143c-130 0-235-105-235-235 0-130 105-235 235-235 130 0 235 105 235 235 0 130-105 235-235 235m0-437c-111 0-202 91-202 202 0 112 91 203 202 203 112 0 203-91 203-203 0-111-91-202-203-202"/>
<glyph glyph-name="rejected" unicode="&#105;" d="M256 491c-130 0-235-105-235-235 0-130 105-235 235-235 130 0 235 105 235 235 0 130-105 235-235 235m0-437c-111 0-202 91-202 202 0 112 91 203 202 203 112 0 203-91 203-203 0-111-91-202-203-202m31 202l82 83c8 8 8 21 0 30-8 8-22 8-30 0l-83-83-82 83c-8 8-22 8-30 0-9-8-9-22 0-30l82-83-82-82c-9-9-9-22 0-30 8-9 22-9 30 0l82 82 83-82c8-9 22-9 30 0 8 8 8 21 0 30z"/>
<glyph glyph-name="revision" unicode="&#106;" d="M256 149c-59 0-107 48-107 107 0 60 48 108 107 108 60 0 108-48 108-108 0-59-48-107-108-107z m0 182c-41 0-75-33-75-75 0-41 34-75 75-75 42 0 75 34 75 75 0 42-33 75-75 75z m0 160c-130 0-235-105-235-235 0-130 105-235 235-235 130 0 235 105 235 235 0 130-105 235-235 235m0-437c-111 0-202 91-202 202 0 112 91 203 202 203 112 0 203-91 203-203 0-111-91-202-203-202"/>
<glyph glyph-name="rewind" unicode="&#107;" d="M362 53c7 0 15 3 20 9 10 12 8 28-3 38l-188 157 188 156c11 9 13 26 3 37-9 11-26 13-37 3l-212-176c-6-5-10-13-10-20 0-8 4-16 10-21l212-177c5-4 11-6 17-6z"/>
<glyph glyph-name="share" unicode="&#108;" d="M282 341c-253 0-261-267-261-267 71 116 124 156 261 156l0-104 208 155-208 157z"/>
<glyph glyph-name="skipf" unicode="&#109;" d="M251 53c-8 0-15 3-21 9-9 12-8 28 4 38l189 157-189 156c-12 9-13 26-4 37 10 11 27 13 38 3l214-176c6-5 9-13 9-20 0-8-3-16-9-21l-214-177c-5-4-11-6-17-6z m-204 0c-8 0-15 3-20 9-10 12-8 28 3 38l188 157-188 156c-11 9-13 26-3 37 9 11 26 13 37 3l212-176c6-5 9-13 9-20 0-8-3-16-9-21l-212-177c-5-4-11-6-17-6z"/>
<glyph glyph-name="skipr" unicode="&#110;" d="M261 53c7 0 15 3 20 9 10 12 8 28-3 38l-190 157 190 156c11 9 13 26 3 37-9 11-26 13-37 3l-214-176c-6-5-10-13-10-20 0-8 4-16 10-21l214-177c5-4 11-6 17-6z m204 0c7 0 15 3 20 9 9 12 8 28-3 38l-188 157 188 156c11 9 12 26 3 37-9 11-26 13-38 3l-211-176c-6-5-10-13-10-20 0-8 4-16 10-21l211-177c5-4 12-6 18-6z"/>
<glyph glyph-name="strike" unicode="&#111;" d="M133 332c26 0 48 22 48 48 0 26-22 48-48 48-27 0-48-22-48-48 0-26 21-48 48-48z m310 112c-21 21-54 21-75 0-9-10-279-324-279-324-8 9-22 9-30 1-9-9-8-22 0-31l30-30c9-8 22-8 30 0 9 8 9 22 0 31 0 0 314 269 324 279 20 20 20 53 0 74z"/>
<glyph glyph-name="view" unicode="&#112;" d="M256 387c-154 0-234-113-234-131 0-18 80-132 234-132 154 0 235 114 235 132 0 18-81 131-235 131m0-232c-57 0-104 45-104 101 0 56 47 101 104 101 58 0 105-45 105-101 0-56-47-101-105-101m53 101c0-28-24-51-53-51-28 0-52 23-52 51 0 28 24 51 52 51 16 0-9-41 0-51 8-9 53 13 53 0"/>
<glyph glyph-name="comment-circle" unicode="&#113;" d="M373 362l-237 0c-10 0-19-9-19-19l0-161c0-11 9-20 19-20l37 0 0-31c0-3 2-5 4-6 1 0 2-1 3-1 1 0 3 1 4 2l58 36 131 0c11 0 19 9 19 20l0 161c0 10-8 19-19 19z m-53-137l-130 0c-3 0-5 1-7 3-2 1-3 4-3 6 0 6 5 10 10 10l131 0c5 0 9-4 9-10 0-5-4-9-10-9z m1 56l-131-1c-3 0-5 1-7 3-1 2-3 4-3 7 0 5 5 10 10 10l131 0c5 0 9-4 9-10 0-5-4-9-9-9z m-66 211c-129 0-234-105-234-234 0-130 105-234 234-234 130 0 234 104 234 234 0 129-104 234-234 234m0-436c-111 0-201 90-201 202 0 111 90 201 201 201 111 0 202-90 202-201 0-112-91-202-202-202"/>
<glyph glyph-name="like-circle" unicode="&#114;" d="M358 309l-5 0c-35 0-51 5-53 7 0 4 1 8 1 12 0 2 1 4 1 6 0 3 1 6 1 9 2 22-2 40-11 50-4 4-9 6-13 6 0 0-15 0-22-7-2-3-4-7-3-10 0-3 2-25-3-43-8-14-30-39-46-54l-2 7c-1 2-2 3-3 4-2 1-3 1-5 0l-73-21c-3-1-5-4-4-8l43-145c1-3 3-5 6-5 0 0 1 0 1 1l74 21c1 0 2 2 3 3 1 1 1 3 1 5l-10 33c7 1 17 2 32 0l19-1c13-1 24-2 31-3 3-1 6-1 9-1 15 0 26 5 29 14 1 2 1 3 2 5 9 5 16 14 16 25 0 1 0 2 0 3 7 5 11 13 11 21 1 3 0 7-1 10 6 6 9 14 9 22 0 19-16 34-35 34m15-50c-2-2-2-5-1-7 1-3 1-5 1-8 0-6-3-11-8-14-3-1-4-4-3-6 0-2 0-3 0-4 0-7-5-14-12-16-2-1-4-3-4-5 0-2-1-4-1-5-2-6-14-7-18-7-2 0-5 0-7 1-8 1-19 2-32 3l-19 1c-7 1-13 1-19 1-6 0-13 0-18-1l-23 80c17 15 44 45 53 63 7 21 4 45 4 48 1 2 8 4 13 4 1 0 2-1 4-3 5-5 10-19 8-40 0-3-1-6-1-9-1-2-1-4-1-6 0-5-1-9-1-13 0-2 1-5 4-8 9-9 38-11 61-11 4 0 6 0 6 0 12 0 22-10 22-22 0-6-3-12-8-16m-118 233c-129 0-234-105-234-234 0-129 105-234 234-234 129 0 234 105 234 234 0 129-105 234-234 234m0-435c-111 0-201 90-201 201 0 111 90 201 201 201 111 0 201-90 201-201 0-111-90-201-201-201"/>
<glyph glyph-name="share-circle" unicode="&#115;" d="M271 309c-148 0-153-156-153-156 42 67 73 91 153 91l0-61 122 91-122 91z m-16 183c-129 0-234-105-234-234 0-130 105-234 234-234 130 0 234 104 234 234 0 129-104 234-234 234m0-436c-111 0-201 90-201 202 0 111 90 201 201 201 111 0 202-90 202-201 0-112-91-202-202-202"/>
<glyph glyph-name="view-circle" unicode="&#116;" d="M255 492c-129 0-234-105-234-234 0-129 105-234 234-234 129 0 233 105 233 234 0 129-104 234-233 234m0-435c-111 0-201 90-201 201 0 111 90 201 201 201 111 0 201-90 201-201 0-111-90-201-201-201m-1 296c-111 0-170-82-170-95 0-13 59-95 170-95 112 0 170 82 170 95 0 13-58 95-170 95m0-168c-42 0-75 32-75 73 0 40 34 73 75 73 42 0 76-33 76-73 0-41-34-73-76-73m38 73c0-20-17-37-38-37-21 0-38 17-38 37 0 20 17 37 38 37 12 0-7-29 0-37 6-7 38 9 38 0"/>
</font>
</defs>
</svg>
